<svg width="175" height="57" viewBox="0 0 175 57" fill="none" xmlns="http://www.w3.org/2000/svg">
<path d="M98.6255 15.4484C98.7381 15.4484 98.8367 15.4907 98.9212 15.5752C99.0198 15.6596 99.069 15.7582 99.069 15.8709C99.069 15.9694 99.0409 16.0821 98.9846 16.2088L94.9714 25.7983C94.5348 26.8403 94.1406 27.6711 93.7885 28.2907C93.4365 28.9102 93 29.4242 92.479 29.8326C91.9579 30.2409 91.3313 30.4451 90.5991 30.4451H89.6697C89.5289 30.4451 89.4092 30.3958 89.3106 30.2973C89.2121 30.2128 89.1628 30.0931 89.1628 29.9382V28.7342C89.1628 28.5934 89.2121 28.4737 89.3106 28.3751C89.4092 28.2766 89.5289 28.2273 89.6697 28.2273H90.3245C90.7469 28.2273 91.0638 28.1076 91.275 27.8682C91.4862 27.6288 91.7397 27.1501 92.0354 26.4319L92.2677 25.8616L88.1067 16.2088C88.0504 16.0821 88.0222 15.9835 88.0222 15.9131C88.0363 15.7864 88.0856 15.6808 88.17 15.5963C88.2545 15.4977 88.3601 15.4484 88.4869 15.4484H90.1766C90.4301 15.4484 90.6132 15.5822 90.7258 15.8497L93.5351 22.7989L96.4288 15.8497C96.5274 15.5822 96.7245 15.4484 97.0202 15.4484H98.6255ZM115.973 20.0108C115.987 20.1798 115.994 20.4896 115.994 20.9402C115.994 21.3908 115.987 21.7006 115.973 21.8695C115.903 23.3481 115.417 24.5168 114.516 25.3758C113.615 26.2207 112.34 26.6431 110.693 26.6431C109.059 26.6431 107.792 26.2277 106.891 25.3969C106.004 24.552 105.511 23.4044 105.412 21.954H103.49V25.925C103.49 26.0658 103.441 26.1855 103.342 26.2841C103.258 26.3826 103.138 26.4319 102.983 26.4319H101.23C101.089 26.4319 100.97 26.3826 100.871 26.2841C100.772 26.1855 100.723 26.0658 100.723 25.925V15.9554C100.723 15.8145 100.772 15.6949 100.871 15.5963C100.97 15.4977 101.089 15.4484 101.23 15.4484H102.983C103.138 15.4484 103.258 15.4977 103.342 15.5963C103.441 15.6808 103.49 15.8005 103.49 15.9554V19.7362H105.433C105.56 18.3422 106.074 17.2438 106.975 16.4412C107.891 15.6385 109.13 15.2372 110.693 15.2372C112.312 15.2372 113.579 15.6667 114.495 16.5257C115.41 17.3846 115.903 18.5463 115.973 20.0108ZM113.101 21.7639C113.115 21.6231 113.122 21.3485 113.122 20.9402C113.122 20.5318 113.115 20.2572 113.101 20.1164C113.058 19.2011 112.833 18.5111 112.425 18.0464C112.016 17.5677 111.439 17.3283 110.693 17.3283C109.946 17.3283 109.369 17.5677 108.961 18.0464C108.552 18.5111 108.327 19.2011 108.285 20.1164L108.264 20.9402L108.285 21.7639C108.327 22.6792 108.552 23.3763 108.961 23.855C109.369 24.3197 109.946 24.552 110.693 24.552C111.439 24.552 112.016 24.3197 112.425 23.855C112.833 23.3763 113.058 22.6792 113.101 21.7639ZM121.169 26.4319C121.028 26.4319 120.909 26.3826 120.81 26.2841C120.711 26.1855 120.662 26.0658 120.662 25.925V17.6874H117.219C117.078 17.6874 116.959 17.6381 116.86 17.5395C116.762 17.4409 116.712 17.3142 116.712 17.1593V15.9554C116.712 15.8005 116.762 15.6808 116.86 15.5963C116.959 15.4977 117.078 15.4484 117.219 15.4484H126.809C126.964 15.4484 127.09 15.4977 127.189 15.5963C127.287 15.6949 127.337 15.8145 127.337 15.9554V17.1593C127.337 17.3001 127.287 17.4269 127.189 17.5395C127.09 17.6381 126.964 17.6874 126.809 17.6874H123.387V25.925C123.387 26.0658 123.338 26.1855 123.239 26.2841C123.155 26.3826 123.035 26.4319 122.88 26.4319H121.169ZM129.518 26.4319C129.377 26.4319 129.258 26.3826 129.159 26.2841C129.06 26.1855 129.011 26.0658 129.011 25.925V15.9554C129.011 15.8145 129.06 15.6949 129.159 15.5963C129.258 15.4977 129.377 15.4484 129.518 15.4484H131.271C131.426 15.4484 131.546 15.4977 131.63 15.5963C131.729 15.6808 131.778 15.8005 131.778 15.9554V19.7362H136.552V15.9554C136.552 15.8005 136.601 15.6808 136.7 15.5963C136.798 15.4977 136.918 15.4484 137.059 15.4484H138.812C138.967 15.4484 139.086 15.4977 139.171 15.5963C139.269 15.6808 139.319 15.8005 139.319 15.9554V25.925C139.319 26.0658 139.269 26.1855 139.171 26.2841C139.086 26.3826 138.967 26.4319 138.812 26.4319H137.059C136.918 26.4319 136.798 26.3826 136.7 26.2841C136.601 26.1855 136.552 26.0658 136.552 25.925V21.954H131.778V25.925C131.778 26.0658 131.729 26.1855 131.63 26.2841C131.546 26.3826 131.426 26.4319 131.271 26.4319H129.518ZM142.044 26.4319C141.904 26.4319 141.784 26.3826 141.685 26.2841C141.587 26.1855 141.537 26.0658 141.537 25.925V15.9554C141.537 15.8145 141.587 15.6949 141.685 15.5963C141.784 15.4977 141.904 15.4484 142.044 15.4484H143.819C143.959 15.4484 144.079 15.4977 144.178 15.5963C144.276 15.6949 144.326 15.8145 144.326 15.9554V18.9336H146.374C147.783 18.9336 148.853 19.2715 149.585 19.9474C150.317 20.6093 150.683 21.5386 150.683 22.7355C150.683 23.9606 150.303 24.883 149.543 25.5025C148.782 26.1221 147.67 26.4319 146.205 26.4319H142.044ZM152.584 26.4319C152.444 26.4319 152.324 26.3826 152.225 26.2841C152.127 26.1855 152.077 26.0658 152.077 25.925V15.9554C152.077 15.8145 152.127 15.6949 152.225 15.5963C152.324 15.4977 152.444 15.4484 152.584 15.4484H154.337C154.492 15.4484 154.612 15.4977 154.697 15.5963C154.795 15.6808 154.844 15.8005 154.844 15.9554V25.925C154.844 26.0658 154.795 26.1855 154.697 26.2841C154.612 26.3826 154.492 26.4319 154.337 26.4319H152.584ZM146.142 24.4253C146.846 24.4253 147.36 24.2986 147.684 24.0451C148.008 23.7776 148.17 23.341 148.17 22.7355C148.17 22.13 148.008 21.6794 147.684 21.3837C147.36 21.088 146.846 20.9402 146.142 20.9402H144.283V24.4253H146.142ZM167.384 15.4484C167.51 15.4484 167.623 15.4977 167.721 15.5963C167.82 15.6808 167.869 15.7864 167.869 15.9131V25.925C167.869 26.0658 167.82 26.1855 167.721 26.2841C167.623 26.3826 167.503 26.4319 167.362 26.4319H165.609C165.468 26.4319 165.349 26.3826 165.25 26.2841C165.152 26.1855 165.102 26.0658 165.102 25.925V19.1448L160.033 26.094C159.906 26.3193 159.716 26.4319 159.463 26.4319H157.857C157.731 26.4319 157.618 26.3897 157.519 26.3052C157.421 26.2066 157.372 26.0869 157.372 25.9461V15.9554C157.372 15.8145 157.421 15.6949 157.519 15.5963C157.618 15.4977 157.738 15.4484 157.879 15.4484H159.632C159.787 15.4484 159.906 15.4977 159.991 15.5963C160.089 15.6808 160.139 15.8005 160.139 15.9554V22.7567L165.208 15.7864C165.363 15.5611 165.553 15.4484 165.778 15.4484H167.384ZM162.737 14.0121C161.54 14.0121 160.667 13.7516 160.118 13.2306C159.568 12.6955 159.294 12.0126 159.294 11.1818C159.294 11.0691 159.329 10.9776 159.399 10.9072C159.47 10.8227 159.568 10.7804 159.695 10.7804H160.899C161.026 10.7804 161.124 10.8227 161.195 10.9072C161.265 10.9776 161.3 11.0691 161.3 11.1818C161.3 11.9844 161.779 12.3857 162.737 12.3857C163.694 12.3857 164.173 11.9844 164.173 11.1818C164.173 11.0691 164.208 10.9776 164.279 10.9072C164.349 10.8227 164.448 10.7804 164.574 10.7804H165.799C165.926 10.7804 166.025 10.8227 166.095 10.9072C166.165 10.9776 166.201 11.0691 166.201 11.1818C166.201 12.0126 165.919 12.6955 165.356 13.2306C164.807 13.7516 163.934 14.0121 162.737 14.0121ZM88.4658 48.7553C88.3249 48.7553 88.2053 48.7061 88.1067 48.6075C88.0081 48.523 87.9588 48.4033 87.9588 48.2484V44.6999C87.9588 44.5591 88.0081 44.4394 88.1067 44.3408C88.2053 44.2423 88.3249 44.193 88.4658 44.193H88.6347C89.1839 44.193 89.5852 43.7564 89.8387 42.8834C90.0922 42.0104 90.2189 40.6515 90.2189 38.8068V35.9554C90.2189 35.8005 90.2682 35.6808 90.3667 35.5963C90.4653 35.4977 90.585 35.4484 90.7258 35.4484H98.2453C98.4002 35.4484 98.5199 35.4977 98.6044 35.5963C98.7029 35.6808 98.7522 35.8005 98.7522 35.9554V44.1719H99.7027C99.8576 44.1719 99.9773 44.2211 100.062 44.3197C100.16 44.4042 100.21 44.5239 100.21 44.6788V48.2484C100.21 48.4033 100.16 48.523 100.062 48.6075C99.9773 48.7061 99.8576 48.7553 99.7027 48.7553H97.9707C97.8158 48.7553 97.6891 48.7061 97.5905 48.6075C97.4919 48.5089 97.4426 48.3892 97.4426 48.2484V46.4319H90.7258V48.2484C90.7258 48.4033 90.6765 48.523 90.578 48.6075C90.4935 48.7061 90.3738 48.7553 90.2189 48.7553H88.4658ZM96.0063 44.1719V37.6874H92.8803V39.1025C92.8803 41.5245 92.5494 43.2214 91.8875 44.193L96.0063 44.1719ZM106.481 46.6431C104.834 46.6431 103.56 46.2207 102.658 45.3758C101.757 44.5168 101.271 43.3481 101.201 41.8695L101.18 40.9402L101.201 40.0108C101.271 38.5463 101.764 37.3846 102.679 36.5257C103.595 35.6667 104.862 35.2372 106.481 35.2372C108.101 35.2372 109.368 35.6667 110.283 36.5257C111.199 37.3846 111.692 38.5463 111.762 40.0108C111.776 40.1798 111.783 40.4896 111.783 40.9402C111.783 41.3908 111.776 41.7006 111.762 41.8695C111.692 43.3481 111.206 44.5168 110.305 45.3758C109.403 46.2207 108.129 46.6431 106.481 46.6431ZM106.481 44.552C107.228 44.552 107.805 44.3197 108.213 43.855C108.622 43.3763 108.847 42.6792 108.889 41.7639C108.903 41.6231 108.91 41.3485 108.91 40.9402C108.91 40.5318 108.903 40.2572 108.889 40.1164C108.847 39.2011 108.622 38.5111 108.213 38.0464C107.805 37.5677 107.228 37.3283 106.481 37.3283C105.735 37.3283 105.158 37.5677 104.749 38.0464C104.341 38.5111 104.116 39.2011 104.073 40.1164L104.052 40.9402L104.073 41.7639C104.116 42.6792 104.341 43.3763 104.749 43.855C105.158 44.3197 105.735 44.552 106.481 44.552ZM125.149 35.4484C125.262 35.4484 125.36 35.4907 125.445 35.5752C125.543 35.6596 125.593 35.7512 125.593 35.8497V45.9884C125.593 46.1151 125.55 46.2207 125.466 46.3052C125.381 46.3897 125.269 46.4319 125.128 46.4319H123.311C123.171 46.4319 123.058 46.3897 122.973 46.3052C122.903 46.2207 122.868 46.1151 122.868 45.9884V40.0742L120.608 44.2352C120.509 44.4042 120.411 44.5309 120.312 44.6154C120.228 44.6999 120.101 44.7421 119.932 44.7421H119.235C119.08 44.7421 118.953 44.6999 118.855 44.6154C118.756 44.5309 118.665 44.4042 118.58 44.2352L116.32 40.1587V45.9884C116.32 46.1151 116.278 46.2207 116.193 46.3052C116.109 46.3897 116.003 46.4319 115.876 46.4319H114.06C113.919 46.4319 113.806 46.3897 113.722 46.3052C113.638 46.2207 113.595 46.1151 113.595 45.9884V35.8497C113.595 35.7512 113.638 35.6596 113.722 35.5752C113.806 35.4907 113.905 35.4484 114.018 35.4484H115.792C116.031 35.4484 116.214 35.5681 116.341 35.8075L119.594 41.7217L122.847 35.8075C122.973 35.5681 123.157 35.4484 123.396 35.4484H125.149Z" fill="#002033"/>
<path d="M64.3605 27.616L33.1802 3L10.2053 21.1381M2 27.616L10.2053 21.1381M10.2053 21.1381V54.6935H56.1551V3" stroke="#0085D6" stroke-width="4.52616"/>
<path d="M45.0782 31.3084C45.0782 36.2382 38.1103 39.1034 33.1804 39.1034C28.2506 39.1034 21.2827 36.2382 21.2827 31.3084" stroke="#F55D47" stroke-width="4.52616"/>
</svg>
