<svg width="24" height="16" viewBox="0 0 24 16" fill="none" xmlns="http://www.w3.org/2000/svg">
<path d="M23.4201 15.1001C22.9453 15.6701 22.2419 15.9998 21.5001 16.0001H2.50007C1.75823 15.9998 1.05483 15.6701 0.580078 15.1001L9.75007 7.46008L10.7001 8.1101C11.4827 8.6501 12.5175 8.6501 13.3001 8.1101L14.2501 7.46008L23.4201 15.1001Z" fill="#188BD2"/>
<path d="M23.5599 1.09006L14.2499 7.46003L13.2999 8.11005C12.5173 8.65004 11.4824 8.65004 10.6999 8.11005L9.74986 7.46003L0.439941 1.08003C0.908409 0.404518 1.67786 0.00111261 2.49995 3.44908e-05H21.4999C22.3257 -0.00432487 23.0989 0.404799 23.5599 1.09006Z" fill="#64BEF6"/>
<path d="M9.75002 7.46003L0.580027 15.1C0.2047 14.6514 -0.000658686 14.085 4.44377e-05 13.5V2.50006C-0.00300243 1.99273 0.1507 1.4968 0.440059 1.08008L9.75002 7.46003Z" fill="#21A3F3"/>
<path d="M24 2.49996V13.5C24.0006 14.0849 23.7953 14.6513 23.42 15.0999L14.25 7.45994L23.56 1.08997C23.8479 1.50368 24.0015 1.99592 24 2.49996Z" fill="#21A3F3"/>
</svg>
