<svg width="375" height="667" viewBox="0 0 375 667" fill="none" xmlns="http://www.w3.org/2000/svg">
<mask id="mask0" mask-type="alpha" maskUnits="userSpaceOnUse" x="0" y="0" width="375" height="667">
<rect width="375" height="667" fill="white"/>
</mask>
<g mask="url(#mask0)">
<path opacity="0.15" d="M321.862 552.147L321.862 552.146L297.347 527.613C294.906 525.173 290.624 525.172 288.184 527.613L267.901 547.91L267.901 547.911C266.676 549.135 266.003 550.762 266.003 552.496C266.003 554.231 266.676 555.857 267.901 557.082L267.901 557.083L288.184 577.38L288.709 577.906L288.184 578.432L286.94 579.678L286.939 579.679C286.238 580.381 285.299 580.77 284.306 580.77H284.304C283.309 580.77 282.368 580.381 281.664 579.677L281.664 579.676L275.75 573.758C275.75 573.758 275.75 573.758 275.75 573.758C275.213 573.222 274.347 573.222 273.81 573.758C273.81 573.758 273.81 573.758 273.81 573.758L262.173 585.404L262.173 585.404C261.636 585.941 261.636 586.81 262.173 587.346L262.173 587.346C262.44 587.614 262.79 587.748 263.143 587.748C263.495 587.748 263.845 587.614 264.112 587.346C264.112 587.346 264.112 587.346 264.112 587.346L274.254 577.199L274.78 576.672L275.306 577.199L279.724 581.618C279.724 581.619 279.724 581.619 279.724 581.619C280.949 582.844 282.571 583.516 284.306 583.516H284.306H284.306H284.306H284.306H284.306H284.306H284.306H284.306H284.306H284.306H284.306H284.306H284.306H284.306H284.306H284.306H284.306H284.306H284.307H284.307H284.307H284.307H284.307H284.307H284.307H284.307H284.307H284.307H284.307H284.307H284.307H284.307H284.307H284.307H284.307H284.307H284.307H284.307H284.307H284.307H284.307H284.307H284.307H284.307H284.307H284.308H284.308H284.308H284.308H284.308H284.308H284.308H284.308H284.308H284.308H284.308H284.308H284.308H284.308H284.308H284.308H284.308H284.308H284.308H284.308H284.308H284.308H284.308H284.308H284.308H284.308H284.308H284.309H284.309H284.309H284.309H284.309H284.309H284.309H284.309H284.309H284.309H284.309H284.309H284.309H284.309H284.309H284.309H284.309H284.309H284.309H284.309H284.309H284.309H284.309H284.309H284.309H284.309H284.309H284.31H284.31H284.31H284.31H284.31H284.31H284.31H284.31H284.31H284.31H284.31H284.31H284.31H284.31H284.31H284.31H284.31H284.31H284.31H284.31H284.31H284.31H284.31H284.31H284.31H284.31H284.31H284.311H284.311H284.311H284.311H284.311H284.311H284.311H284.311H284.311H284.311H284.311H284.311H284.311H284.311H284.311H284.311H284.311H284.311H284.311H284.311H284.311H284.311C286.039 583.514 287.659 582.84 288.879 581.619L288.879 581.619L291.619 578.876L291.619 578.876C292.156 578.339 292.156 577.471 291.619 576.934L291.619 576.934L269.841 555.14C269.841 555.139 269.841 555.139 269.841 555.139C269.133 554.433 268.747 553.492 268.747 552.497C268.747 551.501 269.133 550.56 269.84 549.853C269.84 549.853 269.84 549.853 269.84 549.853L290.123 529.557C291.546 528.131 293.985 528.135 295.407 529.557L295.408 529.557L319.921 554.09C319.922 554.09 319.922 554.09 319.922 554.091L321.862 552.147ZM321.862 552.147C323.087 553.37 323.76 554.995 323.76 556.732C323.76 558.467 323.087 560.093 321.862 561.318L321.862 561.319L301.579 581.616L301.579 581.617C300.354 582.844 298.728 583.516 296.997 583.516C296.239 583.516 295.625 582.903 295.625 582.142C295.625 581.382 296.239 580.768 296.997 580.768C297.995 580.768 298.933 580.378 299.639 579.672L299.639 579.672L319.922 559.377L321.862 552.147ZM274.691 585.407L274.692 585.409C275.229 585.945 275.229 586.814 274.692 587.351L274.692 587.351L266.228 595.821C266.228 595.821 266.228 595.821 266.228 595.821C265.972 596.078 265.623 596.223 265.259 596.223H261.027H260.283V596.967V601.201C260.283 601.961 259.669 602.575 258.911 602.575H254.679H253.935V603.319V607.552C253.935 608.313 253.321 608.926 252.563 608.926H248.331H247.587V609.67V613.904C247.587 614.268 247.444 614.616 247.185 614.874L247.185 614.874L245.07 616.992C244.813 617.249 244.463 617.394 244.1 617.394H233.52C232.763 617.394 232.148 616.779 232.148 616.022V605.434C232.148 605.068 232.292 604.72 232.55 604.462L232.55 604.462L267.099 569.886L267.542 569.443L267.18 568.931C266.417 567.851 266.005 566.563 266.005 565.207C266.005 564.445 266.621 563.828 267.377 563.828C268.137 563.828 268.749 564.44 268.749 565.198V565.207C268.749 566.201 269.135 567.139 269.841 567.843C269.841 567.843 269.841 567.843 269.842 567.844L270.46 568.464L270.46 568.464C270.996 569.001 270.995 569.872 270.459 570.406L270.458 570.407L235.11 605.785L234.892 606.002V606.31V613.902V614.646H235.636H243.224H243.532L243.75 614.428L244.626 613.552L244.844 613.334V613.026V607.55C244.844 606.79 245.459 606.176 246.216 606.176H250.447H251.191V605.432V601.198C251.191 600.438 251.805 599.824 252.563 599.824H256.795H257.539V599.08V594.846C257.539 594.086 258.153 593.472 258.911 593.472H264.383H264.691L264.909 593.254L272.752 585.404C272.752 585.404 272.752 585.404 272.752 585.404C273.289 584.868 274.154 584.868 274.691 585.407ZM307.488 550.468L307.489 550.469C309.773 552.753 309.773 556.476 307.488 558.763L307.488 558.763C306.382 559.871 304.912 560.481 303.345 560.481C301.778 560.481 300.308 559.871 299.202 558.763L299.201 558.763L290.738 550.293L290.738 550.293C288.453 548.008 288.453 544.285 290.738 541.998L290.738 541.998C292.94 539.79 296.823 539.79 299.024 541.998L299.025 541.998L307.488 550.468ZM301.141 556.818L301.141 556.818C302.329 558.006 304.361 558.006 305.549 556.818C306.764 555.603 306.764 553.624 305.549 552.409C305.549 552.409 305.549 552.409 305.549 552.408L297.086 543.939L297.085 543.939C296.498 543.351 295.714 543.025 294.881 543.025C294.048 543.025 293.265 543.351 292.677 543.939L292.676 543.94C291.465 545.156 291.464 547.133 292.677 548.348L292.677 548.348L301.141 556.818Z" fill="black" stroke="white" stroke-width="1.48789"/>
<path opacity="0.15" d="M414.102 323.78C413.699 323.49 413.2 323.372 412.711 323.452L409.651 323.948L409.022 324.05L408.919 323.421L408.423 320.363C408.258 319.343 407.298 318.653 406.278 318.819L403.219 319.315L402.589 319.417L402.487 318.788L401.991 315.73C401.825 314.71 400.866 314.02 399.846 314.185L396.786 314.682L396.157 314.784L396.055 314.154L395.558 311.096C395.479 310.606 395.207 310.169 394.807 309.88L386.229 303.703L414.102 323.78ZM414.102 323.78L416.247 325.325C416.648 325.614 416.919 326.052 416.999 326.541L418.495 335.76C418.66 336.777 417.968 337.737 416.95 337.902L407.724 339.399C407.233 339.479 406.733 339.361 406.331 339.071M414.102 323.78L406.331 339.071M406.331 339.071L371.316 313.854L406.331 339.071ZM348.484 268.098L348.484 268.099L330.571 292.929L348.484 268.098ZM348.484 268.098C349.379 266.854 350.705 266.035 352.224 265.788C353.741 265.542 355.258 265.9 356.503 266.797L356.503 266.797L377.058 281.602L377.058 281.602C378.305 282.499 379.124 283.825 379.369 285.338C379.478 286.009 379.023 286.64 378.35 286.75C377.677 286.859 377.046 286.404 376.937 285.733C376.796 284.868 376.327 284.11 375.616 283.598L375.616 283.598L355.062 268.793C354.35 268.28 353.481 268.077 352.618 268.217C351.755 268.357 350.994 268.824 350.482 269.537C350.482 269.537 350.482 269.537 350.482 269.537L332.57 294.367L332.57 294.367C331.539 295.799 331.878 297.913 333.314 298.945L353.867 313.75C354.579 314.263 355.448 314.466 356.311 314.326C357.173 314.186 357.934 313.719 358.446 313.006C358.447 313.006 358.447 313.006 358.447 313.006L374.36 290.947L374.36 290.947C374.758 290.395 375.526 290.27 376.078 290.668L376.079 290.668L378.856 292.668L378.856 292.668C380.096 293.561 380.916 294.882 381.163 296.392L381.163 296.393L381.163 296.393L381.163 296.393L381.163 296.393L381.163 296.393L381.163 296.393L381.163 296.393L381.163 296.393L381.163 296.393L381.163 296.393L381.163 296.393L381.163 296.393L381.163 296.393L381.163 296.393L381.163 296.393L381.163 296.393L381.163 296.393L381.163 296.393L381.163 296.393L381.163 296.393L381.163 296.393L381.163 296.393L381.163 296.393L381.163 296.393L381.163 296.393L381.163 296.393L381.163 296.393L381.163 296.393L381.163 296.393L381.163 296.393L381.163 296.393L381.163 296.394L381.163 296.394L381.163 296.394L381.163 296.394L381.163 296.394L381.163 296.394L381.163 296.394L381.163 296.394L381.163 296.394L381.163 296.394L381.163 296.394L381.163 296.394L381.163 296.394L381.163 296.394L381.163 296.394L381.163 296.394L381.163 296.394L381.163 296.394L381.163 296.394L381.163 296.394L381.163 296.394L381.163 296.394L381.163 296.394L381.163 296.394L381.163 296.394L381.163 296.394L381.163 296.394L381.163 296.394L381.163 296.394L381.163 296.394L381.163 296.394L381.163 296.395L381.163 296.395L381.163 296.395L381.163 296.395L381.163 296.395L381.163 296.395L381.163 296.395L381.163 296.395L381.163 296.395L381.163 296.395L381.163 296.395L381.163 296.395L381.163 296.395L381.163 296.395L381.163 296.395L381.163 296.395L381.163 296.395L381.163 296.395L381.163 296.395L381.163 296.395L381.163 296.395L381.163 296.395L381.163 296.395L381.163 296.395L381.163 296.395L381.163 296.395L381.163 296.395L381.163 296.395L381.163 296.395L381.163 296.395L381.163 296.395L381.163 296.396L381.163 296.396L381.163 296.396L381.163 296.396L381.163 296.396L381.163 296.396L381.163 296.396L381.163 296.396L381.163 296.396L381.163 296.396L381.163 296.396L381.163 296.396L381.163 296.396L381.163 296.396L381.163 296.396L381.163 296.396L381.163 296.396L381.163 296.396L381.163 296.396L381.163 296.396L381.163 296.396L381.163 296.396L381.163 296.396L381.163 296.396L381.163 296.396L381.163 296.396L381.163 296.396L381.163 296.396L381.163 296.396L381.163 296.396L381.163 296.396L381.163 296.397L381.163 296.397L381.163 296.397L381.163 296.397L381.163 296.397L381.163 296.397L381.163 296.397L381.163 296.397L381.164 296.397L381.164 296.397L381.164 296.397L381.164 296.397L381.164 296.397L381.164 296.397L381.164 296.397L381.164 296.397L381.164 296.397L381.164 296.397L381.164 296.397L381.164 296.397L381.164 296.397L381.164 296.397L381.164 296.397L381.164 296.397L381.164 296.397C381.41 297.914 381.052 299.427 380.154 300.672C380.154 300.672 380.154 300.672 380.154 300.672L376.927 305.147L376.554 305.665L377.072 306.037L387.348 313.44C387.348 313.44 387.348 313.44 387.349 313.44C387.624 313.638 387.793 313.929 387.843 314.241C387.894 314.552 387.825 314.881 387.627 315.157L387.627 315.157C387.229 315.709 386.461 315.834 385.908 315.436L385.908 315.435L374.115 306.941C374.114 306.941 374.114 306.941 374.114 306.941C373.562 306.543 373.438 305.777 373.836 305.225C373.836 305.225 373.836 305.225 373.836 305.224L378.157 299.234L378.157 299.234C378.668 298.525 378.873 297.656 378.733 296.793L378.733 296.792C378.593 295.931 378.124 295.173 377.417 294.664L377.417 294.663L376.155 293.755L375.638 293.383L375.265 293.9L360.445 314.444L360.445 314.444C359.548 315.689 358.222 316.508 356.705 316.754C355.188 317 353.671 316.643 352.426 315.746L352.426 315.745M348.484 268.098L352.426 315.745M352.426 315.745L331.871 300.941C331.871 300.941 331.871 300.941 331.871 300.941M352.426 315.745L331.871 300.941M331.871 300.941C329.39 299.153 328.785 295.41 330.571 292.929L331.871 300.941ZM384.136 304.5L384.137 304.499C384.535 303.947 385.304 303.822 385.857 304.22L385.857 304.22L394.434 310.398C394.434 310.398 394.434 310.398 394.434 310.398C394.698 310.588 394.877 310.876 394.929 311.198L395.527 314.886L395.629 315.515L396.259 315.413L399.948 314.815C400.621 314.706 401.252 315.161 401.361 315.832L401.96 319.519L402.062 320.149L402.691 320.047L406.381 319.448C407.053 319.339 407.685 319.794 407.794 320.465L408.392 324.153L408.494 324.782L409.124 324.68L412.813 324.081C413.135 324.029 413.464 324.106 413.729 324.298L413.73 324.298L415.874 325.842C416.138 326.032 416.317 326.321 416.369 326.643L417.865 335.862C417.974 336.532 417.518 337.164 416.848 337.273L407.622 338.77C407.298 338.823 406.969 338.745 406.703 338.554L406.703 338.554L371.689 313.337L371.253 313.023L370.87 313.399C370.034 314.22 368.966 314.763 367.78 314.955C367.106 315.065 366.472 314.608 366.364 313.939C366.254 313.266 366.708 312.637 367.379 312.528L367.386 312.527C368.247 312.387 369.006 311.92 369.516 311.21C369.517 311.21 369.517 311.21 369.517 311.209L369.97 310.583L369.97 310.583C370.369 310.031 371.139 309.907 371.689 310.305L371.69 310.305L407.516 336.105L407.73 336.26L407.991 336.217L414.606 335.144L415.236 335.042L415.134 334.412L414.061 327.8L414.019 327.54L413.804 327.385L412.917 326.746L412.703 326.591L412.442 326.634L407.67 327.408C406.998 327.517 406.366 327.061 406.257 326.391L405.659 322.704L405.557 322.074L404.927 322.176L401.238 322.775C400.565 322.884 399.933 322.429 399.825 321.758L399.226 318.07L399.124 317.441L398.495 317.543L394.805 318.142C394.132 318.251 393.501 317.796 393.392 317.125L392.618 312.357L392.576 312.096L392.362 311.941L384.412 306.217C384.412 306.216 384.412 306.216 384.412 306.216C383.86 305.818 383.736 305.053 384.136 304.5ZM349.054 280.861L349.054 280.86C350.728 278.538 353.984 278.01 356.308 279.684L356.308 279.684C357.435 280.494 358.176 281.693 358.398 283.064C358.621 284.434 358.296 285.806 357.484 286.931L357.484 286.932L351.3 295.504L351.3 295.504C349.626 297.826 346.37 298.355 344.046 296.681L344.045 296.681C341.802 295.068 341.251 291.673 342.869 289.434L342.87 289.433L349.054 280.861ZM355.484 285.494L355.485 285.494C356.345 284.3 356.06 282.54 354.866 281.68C353.643 280.799 351.93 281.077 351.049 282.299L344.865 290.871L344.865 290.871C344.439 291.462 344.267 292.186 344.384 292.907C344.501 293.628 344.893 294.26 345.484 294.686L345.486 294.687C346.708 295.564 348.419 295.287 349.3 294.067L349.3 294.067L355.484 285.494Z" fill="black" stroke="white" stroke-width="1.27534"/>
<path opacity="0.15" d="M281.767 349.144L281.966 349.344L282.243 349.291C282.466 349.248 282.693 349.225 282.923 349.225C283.875 349.225 284.767 349.595 285.439 350.267L306.778 371.6C306.778 371.6 306.778 371.601 306.778 371.601C308.165 372.987 308.165 375.245 306.778 376.632L302.781 380.627C302.108 381.3 301.217 381.67 300.265 381.67C299.313 381.67 298.421 381.3 297.749 380.627L276.41 359.294C275.544 358.429 275.218 357.224 275.435 356.1L275.488 355.823L275.288 355.624L257.295 337.634L256.919 337.259L256.543 337.634L253.057 341.12L253.057 341.12C252.888 341.289 252.66 341.383 252.421 341.383C252.183 341.383 251.954 341.289 251.785 341.12L250.417 339.752L250.041 339.376L249.665 339.752L247.158 342.258L246.782 342.634L247.158 343.01L248.527 344.378L248.527 344.378C248.696 344.547 248.79 344.775 248.79 345.013C248.79 345.252 248.696 345.48 248.527 345.648L248.527 345.649L243.413 350.761L243.413 350.761C243.238 350.937 243.009 351.024 242.778 351.024C242.547 351.024 242.318 350.937 242.142 350.761L242.142 350.761L232.199 340.821L232.199 340.821C232.03 340.652 231.936 340.424 231.936 340.185C231.936 339.947 232.03 339.719 232.199 339.55L237.313 334.437L237.313 334.437C237.664 334.086 238.233 334.086 238.584 334.437L239.952 335.805L240.328 336.181L240.704 335.805L243.211 333.299L243.587 332.923L243.211 332.547L241.843 331.179C241.492 330.828 241.492 330.26 241.843 329.909L256.047 315.708L256.047 315.708C256.215 315.539 256.444 315.445 256.682 315.445C256.921 315.445 257.15 315.539 257.318 315.708L258.204 316.594L258.574 316.964L258.95 316.6C264.299 311.416 271.596 308.74 279.041 309.249C279.393 309.273 279.698 309.501 279.822 309.83C279.945 310.161 279.865 310.532 279.616 310.781L266.379 324.015L266.003 324.391L266.379 324.766L267.261 325.649C267.612 325.999 267.612 326.568 267.261 326.919L263.774 330.405L263.399 330.781L263.774 331.156L281.767 349.144ZM275.9 311.954L276.909 310.946L275.487 311.048C269.792 311.457 264.386 313.848 260.233 317.858L259.844 318.233L260.226 318.616L264.356 322.744L264.732 323.12L265.107 322.744L275.9 311.954ZM242.402 348.479L242.778 348.855L243.153 348.479L246.245 345.389L246.621 345.013L246.245 344.637L238.324 336.719L237.949 336.343L237.573 336.719L234.482 339.809L234.106 340.185L234.482 340.561L242.402 348.479ZM245.136 340.987L245.511 341.363L245.887 340.987L248.394 338.481L248.77 338.105L248.394 337.729L245.234 334.57L244.858 334.194L244.482 334.57L241.975 337.076L241.599 337.452L241.975 337.828L245.136 340.987ZM252.045 338.838L252.421 339.214L252.797 338.838L264.978 326.66L265.354 326.284L264.978 325.908L257.058 317.99L256.682 317.614L256.307 317.99L244.125 330.168L243.749 330.544L244.125 330.92L252.045 338.838ZM262.503 332.427L262.128 332.051L261.752 332.427L258.566 335.612L258.19 335.988L258.566 336.364L276.064 353.857L276.44 354.233L276.816 353.857L280.001 350.672L280.377 350.297L280.001 349.921L262.503 332.427ZM299.02 379.357L299.02 379.357C299.352 379.688 299.795 379.872 300.265 379.872C300.734 379.872 301.178 379.689 301.51 379.357L305.506 375.361C305.506 375.361 305.506 375.361 305.507 375.361C306.194 374.674 306.193 373.558 305.507 372.871L305.507 372.871L284.168 351.538L284.168 351.538C283.836 351.206 283.392 351.022 282.923 351.022C282.454 351.022 282.011 351.206 281.68 351.536L281.679 351.537L277.681 355.534L277.68 355.535C276.995 356.222 276.995 357.337 277.681 358.023L299.02 379.357Z" fill="black" stroke="white" stroke-width="1.06278"/>
<path opacity="0.15" d="M345.059 396.094L345.058 396.094L340.277 400.934C340.277 400.934 340.277 400.934 340.277 400.934L340.276 400.934L340.125 400.785C339.147 401.778 337.911 402.539 336.552 402.983C335.418 403.354 334.371 404.004 333.525 404.865L345.059 396.094ZM345.059 396.094L346.983 394.139L346.831 393.99L346.983 394.139C348.92 392.171 349.864 389.5 349.568 386.811C349.301 384.38 350.224 381.963 352.035 380.345C353.063 379.427 354.327 378.822 355.692 378.597L355.692 378.597C355.925 378.558 356.164 378.645 356.32 378.828L356.321 378.828C356.478 379.012 356.53 379.266 356.459 379.5L355.213 383.557C355.213 383.557 355.213 383.557 355.213 383.557C355.033 384.141 355.089 384.763 355.369 385.305C355.649 385.848 356.121 386.249 356.699 386.432L356.699 386.432C357.894 386.81 359.165 386.13 359.535 384.923L359.332 384.86L359.535 384.923L360.796 380.819M345.059 396.094L355.493 395.351M339.288 417.595C339.461 417.797 339.71 417.91 339.968 417.91C340.016 417.91 340.065 417.906 340.113 417.898C341.517 417.666 342.819 417.043 343.877 416.098C345.739 414.434 346.688 411.95 346.413 409.451M339.288 417.595L339.45 417.457C339.45 417.457 339.45 417.457 339.45 417.457M339.288 417.595L339.45 417.457M339.288 417.595C339.083 417.356 339.015 417.026 339.108 416.723L339.45 417.457M339.45 417.457C339.582 417.612 339.772 417.698 339.968 417.698C340.005 417.698 340.041 417.695 340.078 417.689L340.078 417.689C341.443 417.463 342.707 416.858 343.735 415.94C345.546 414.322 346.469 411.905 346.202 409.474L346.413 409.451M346.413 409.451L346.202 409.474C345.906 406.785 346.85 404.114 348.787 402.146L348.788 402.146L355.493 395.351M346.413 409.451C346.125 406.827 347.045 404.219 348.939 402.295L355.493 395.351M355.493 395.351C356.496 394.333 357.761 393.555 359.152 393.1C360.253 392.74 361.271 392.108 362.094 391.271C363.517 389.826 364.283 387.905 364.251 385.86C364.219 383.815 363.392 381.918 361.922 380.516M361.922 380.516L362.067 380.363L361.922 380.516C361.922 380.516 361.922 380.516 361.922 380.516ZM361.922 380.516C361.749 380.351 361.506 380.288 361.278 380.349L361.278 380.349C361.05 380.41 360.867 380.587 360.796 380.819M360.796 380.819L360.796 380.819L360.594 380.757L360.796 380.819ZM346.029 397.071L346.03 397.071L347.954 395.135C347.954 395.135 347.954 395.135 347.954 395.135C350.193 392.86 351.279 389.769 350.936 386.655C350.719 384.681 351.468 382.718 352.941 381.403C353.364 381.025 353.837 380.712 354.346 380.472L354.781 380.266L354.64 380.727L353.899 383.137L353.899 383.137C353.609 384.082 353.698 385.084 354.151 385.96L354.151 385.96C354.603 386.837 355.363 387.48 356.291 387.774L356.227 387.976L356.291 387.774C358.203 388.38 360.25 387.293 360.849 385.343L361.613 382.853L361.753 382.399L361.998 382.805C362.553 383.723 362.858 384.777 362.875 385.882C362.9 387.541 362.278 389.102 361.123 390.275L361.123 390.275C360.445 390.965 359.64 391.465 358.732 391.762L358.676 391.591L358.732 391.762C357.133 392.285 355.678 393.182 354.522 394.356L354.522 394.356L347.816 401.15L346.029 397.071ZM346.029 397.071L341.247 401.929C340.092 403.103 338.637 404 337.038 404.523C336.13 404.82 335.325 405.32 334.647 406.01C333.491 407.183 332.869 408.744 332.895 410.403C332.912 411.508 333.216 412.562 333.772 413.48L334.017 413.886L334.157 413.432L334.921 410.942C335.211 409.997 335.845 409.225 336.706 408.767L336.607 408.579L336.706 408.767C337.567 408.308 338.551 408.218 339.479 408.512C340.407 408.806 341.167 409.449 341.619 410.325C342.071 411.201 342.161 412.203 341.871 413.148L341.13 415.559L340.989 416.019M346.029 397.071L340.989 416.019M340.989 416.019L341.424 415.813M340.989 416.019L341.424 415.813M341.424 415.813C341.933 415.573 342.406 415.26 342.829 414.882C344.302 413.567 345.051 411.604 344.834 409.631C344.491 406.516 345.577 403.425 347.816 401.15L341.424 415.813Z" fill="black" stroke="white" stroke-width="0.425112"/>
<path opacity="0.15" d="M383.53 490.245C385.729 500.119 379.491 509.912 369.594 512.116C359.698 514.32 349.894 508.1 347.694 498.226C347.155 495.805 347.582 492.512 348.57 488.884C349.555 485.269 351.079 481.38 352.68 477.795C354.279 474.212 355.949 470.942 357.219 468.568C357.855 467.38 358.39 466.418 358.766 465.752C358.911 465.494 359.033 465.281 359.127 465.117C359.283 465.226 359.483 465.367 359.724 465.539C360.347 465.982 361.24 466.626 362.319 467.432C364.477 469.043 367.377 471.295 370.346 473.861C373.316 476.428 376.347 479.302 378.773 482.157C381.207 485.024 382.991 487.824 383.53 490.245Z" stroke="black" stroke-width="0.850224"/>
<path opacity="0.15" d="M286.444 471.453L295.032 469.629C297.586 469.087 299.217 466.577 298.674 464.023L295.026 446.846C294.484 444.292 291.974 442.662 289.42 443.204L280.832 445.028M286.444 471.453L277.855 473.277C275.301 473.819 272.791 472.189 272.249 469.635L268.601 452.458C268.059 449.904 269.689 447.394 272.243 446.852L280.832 445.028M286.444 471.453L280.832 445.028M268.116 472.929L263.486 451.128C262.672 447.297 265.118 443.532 268.949 442.718L290.75 438.088C294.581 437.275 298.346 439.721 299.16 443.552L303.79 465.353C304.603 469.184 302.157 472.949 298.326 473.763L276.525 478.392C272.694 479.206 268.929 476.76 268.116 472.929Z" stroke="black" stroke-width="0.850224"/>
<path opacity="0.15" d="M162.733 324.7L154.12 337.841L171.85 353.833L179.985 349.303L194.589 362.476L183.424 329.687L173.307 340.454L162.733 324.7Z" stroke="black" stroke-width="0.850224"/>
<path opacity="0.15" d="M351.999 572.301L336.845 595.421L368.039 623.558L382.353 615.589L408.047 638.765L388.403 581.075L370.603 600.019L351.999 572.301Z" stroke="black" stroke-width="0.850224"/>
<rect x="203" y="361.61" width="44" height="338" fill="url(#paint0_linear)"/>
<path d="M97 694.61V361.61H203V694.61H97Z" fill="#3678A1"/>
<path d="M103.283 561.938L62.7849 556.812C64.8354 591.842 69.5516 665.285 72.0123 678.819C77.8222 705.134 89.9545 758.072 92.005 759.303C94.5682 760.841 105.334 760.841 107.897 756.739C107.384 740.677 105.744 707.629 103.283 703.938C104.65 656.778 106.564 562.354 103.283 561.938Z" fill="url(#paint1_linear)"/>
<path d="M155.059 568.602L103.283 561.938C107.119 604.133 104.889 622.952 106.42 631.144C106.73 632.806 107.195 634.03 107.897 634.924L138.142 649.598L155.059 568.602Z" fill="url(#paint2_linear)"/>
<path d="M107.897 634.924L138.142 649.598C124.472 672.154 93.3381 721.265 78.1641 737.26C73.3795 736.918 62.785 733.979 62.785 722.906C70.3443 696.932 89.6543 642.217 106.42 631.144C106.73 632.806 107.195 634.03 107.897 634.924Z" fill="url(#paint3_linear)"/>
<path d="M199.147 417.375C184.792 402.509 135.579 407.636 108.41 411.736C80.2145 429.166 72.0118 536.82 55.0956 558.863C38.1794 580.906 159.674 571.166 159.674 571.166C159.674 515.289 222.727 440.444 199.147 417.375Z" fill="url(#paint4_linear)"/>
<path d="M124.301 501.96L101.233 505.036V488.119L124.301 501.96Z" fill="url(#paint5_linear)"/>
<path d="M104.313 489.655C106.145 497.815 106.185 503.821 104.313 509.649C64.9426 509.649 54.9244 499.055 50.4816 494.27C55.9087 469.382 77.3724 414.644 96.1063 412.762C124.485 409.911 124.497 411.585 116.612 412.761C106.7 437.388 82.7689 476.096 78.3339 482.289C78.4465 481.98 77.9962 482.452 78.3339 482.289C77.7776 483.065 78.2105 482.627 78.3339 482.289C82.4778 480.282 94.811 489.005 104.313 489.655Z" fill="url(#paint6_linear)"/>
<path fill-rule="evenodd" clip-rule="evenodd" d="M32.027 430.218L60.4904 419.426L62.1689 424.469C63.3759 424.158 64.64 423.993 65.9423 423.993C74.3908 423.993 81.24 430.945 81.24 439.521C81.24 445.938 77.4055 451.446 71.9356 453.812L73.7155 459.16L44.0201 469.664L32.027 430.218ZM63.6158 428.815L70.4891 449.466C74.1808 447.724 76.7407 443.926 76.7407 439.521C76.7407 433.468 71.9061 428.56 65.9423 428.56C65.1435 428.56 64.3654 428.648 63.6158 428.815Z" fill="url(#paint7_linear)"/>
<path d="M102.771 464.538L95.3165 457.547C96.8694 453.664 99.6957 445.524 98.5777 444.032C98.1118 440.304 97.4596 432.009 98.5777 428.653C96.5589 429.119 92.6145 432.568 92.9872 442.634C90.8131 445.586 85.5332 449.718 81.8062 442.634C79.1663 437.974 72.7683 428.653 68.2959 428.653C69.2276 433.935 70.8116 445.058 69.6935 447.295C68.7618 450.402 67.1778 457.268 68.2959 459.878C71.2464 463.295 78.0792 470.317 81.8062 471.062C84.7568 471.218 91.5896 473.206 95.3165 479.917L102.771 464.538Z" fill="url(#paint8_linear)"/>
<path d="M115.288 501.845L117.074 503.31C142.243 517.339 157.416 510.453 168.268 496.019C184.392 480.414 191.716 470.347 203.919 451.73C209.855 444.355 203.919 416.738 195.656 415.547C183.576 413.805 183.395 422.657 177.458 430.032C161.221 445.985 153.136 456.897 138.772 477.862C138.145 478.777 136.989 479.19 135.932 478.854C121.083 474.132 116.031 468.741 108.793 461.203C102.732 457.286 100.141 460.32 96.1199 466.238C92.4095 471.7 87.9851 478.172 92.962 482.488C100.395 491.034 105.418 495.169 115.288 501.845Z" fill="url(#paint9_linear)"/>
<path d="M172.106 402.905C172.106 398.604 168.348 395.269 164.077 395.779C151.122 399.017 142.681 397.408 137.63 397.895C133.72 398.273 127.582 400.087 125.82 403.597C125.209 404.812 124.937 406.213 125.111 407.664V413.821C125.6 417.92 129.439 420.761 133.502 420.033L165.949 415.521C166.882 415.392 167.805 415.107 168.515 414.488C170.547 412.716 172.106 409.695 172.106 406.756V402.905Z" fill="url(#paint10_linear)"/>
<path d="M133.016 392.769L164.287 381.491C163.774 387.13 163.056 398.818 164.287 400.458C162.646 406.61 142.756 406.952 133.016 407.635V392.769Z" fill="url(#paint11_linear)"/>
<path d="M166.781 380.466C177.788 372.701 179.177 342.407 166.781 335.866L124.745 334.328C116.953 344.991 120.473 367.308 123.719 376.365C124.54 394.409 130.554 400.288 133.459 400.971C149.043 404.662 162.167 388.839 166.781 380.466Z" fill="url(#paint12_linear)"/>
<path d="M174.916 365.836C174.403 360.539 172.147 353.123 167.226 365.836C167.397 367.716 167.124 371.372 164.663 370.962C162.202 370.552 158.511 356.096 156.973 348.919C161.245 345.33 166.201 338.051 151.847 337.641C146.037 340.033 132.47 343.588 124.677 338.666C122.798 342.084 119.244 350.764 120.064 358.146C116.475 347.21 117.603 324.518 150.822 321.237C184.041 317.956 180.726 349.602 174.916 365.836Z" fill="#004168"/>
<path d="M132.578 358.886C130.345 358.742 126.55 359.242 123.755 360.815C120.96 362.388 123.446 358.798 123.792 357.964C126.28 357.262 131.547 355.984 132.714 356.488C133.221 357.299 133.905 358.914 132.578 358.886Z" fill="#001826"/>
<path d="M139.928 358.753C142.86 358.136 148.062 357.813 152.243 358.753C156.424 359.693 152.067 356.717 151.364 355.976C147.845 355.822 140.456 355.699 139.048 356.439C138.608 357.34 138.169 359.064 139.928 358.753Z" fill="#001826"/>
<path d="M134.553 360.986C134.383 365.428 133.528 373.801 131.478 376.877C130.452 378.415 138.142 379.44 140.705 379.44" stroke="url(#paint13_linear)" stroke-width="1.27534" stroke-linecap="round" stroke-linejoin="round"/>
<path d="M143.835 388.676C148.319 387.167 150.165 384.354 150.04 382.516C148.72 383.256 145.914 384.141 142.907 386.334C138.242 386.918 135.559 388.324 133.503 389.117C136.85 390.307 140.351 389.919 143.835 388.676Z" fill="url(#paint14_linear)"/>
<path d="M150.874 362.925C150.938 363.701 143.398 364.677 140.755 364.177C137.452 363.553 143.717 361.313 145.625 361.224C147.014 361.159 149.852 360.974 150.874 362.925Z" fill="#001826"/>
<path d="M124.758 363.702C124.695 364.478 129.842 365.342 131.667 364.805C133.949 364.132 129.709 361.987 128.402 361.926C127.451 361.882 125.509 361.739 124.758 363.702Z" fill="#001826"/>
</g>
<defs>
<linearGradient id="paint0_linear" x1="225" y1="361.61" x2="225" y2="699.61" gradientUnits="userSpaceOnUse">
<stop stop-color="#265573"/>
<stop offset="1" stop-color="#2F698E"/>
</linearGradient>
<linearGradient id="paint1_linear" x1="107.897" y1="556.812" x2="62.7849" y2="759.815" gradientUnits="userSpaceOnUse">
<stop stop-color="#003657"/>
<stop offset="1" stop-color="#002033"/>
</linearGradient>
<linearGradient id="paint2_linear" x1="155.059" y1="561.938" x2="62.7851" y2="737.26" gradientUnits="userSpaceOnUse">
<stop stop-color="#003657"/>
<stop offset="1" stop-color="#002033"/>
</linearGradient>
<linearGradient id="paint3_linear" x1="155.059" y1="561.938" x2="62.7851" y2="737.26" gradientUnits="userSpaceOnUse">
<stop stop-color="#003657"/>
<stop offset="1" stop-color="#002033"/>
</linearGradient>
<linearGradient id="paint4_linear" x1="203.247" y1="406.097" x2="58.684" y2="571.166" gradientUnits="userSpaceOnUse">
<stop stop-color="#0098F5"/>
<stop offset="1" stop-color="#0085D6"/>
</linearGradient>
<linearGradient id="paint5_linear" x1="112.767" y1="488.119" x2="112.767" y2="505.036" gradientUnits="userSpaceOnUse">
<stop stop-color="#F0C275"/>
<stop offset="1" stop-color="#F5D6A3"/>
</linearGradient>
<linearGradient id="paint6_linear" x1="113.536" y1="411.224" x2="21.016" y2="487.624" gradientUnits="userSpaceOnUse">
<stop stop-color="#0098F5"/>
<stop offset="1" stop-color="#0085D6"/>
</linearGradient>
<linearGradient id="paint7_linear" x1="81.24" y1="419.426" x2="31.0074" y2="468.913" gradientUnits="userSpaceOnUse">
<stop stop-color="#F55D47"/>
<stop offset="1" stop-color="#E73B23"/>
</linearGradient>
<linearGradient id="paint8_linear" x1="68.2959" y1="479.917" x2="102.787" y2="428.664" gradientUnits="userSpaceOnUse">
<stop stop-color="#F0C275"/>
<stop offset="1" stop-color="#F5D6A3"/>
</linearGradient>
<linearGradient id="paint9_linear" x1="206.323" y1="415.325" x2="90.3351" y2="507.588" gradientUnits="userSpaceOnUse">
<stop stop-color="#0098F5"/>
<stop offset="0.862204" stop-color="#007FCC"/>
</linearGradient>
<linearGradient id="paint10_linear" x1="137.117" y1="413.787" x2="135.939" y2="400.393" gradientUnits="userSpaceOnUse">
<stop stop-color="#0098F5"/>
<stop offset="0.601498" stop-color="#0079C2"/>
</linearGradient>
<linearGradient id="paint11_linear" x1="148.651" y1="381.491" x2="148.651" y2="410.199" gradientUnits="userSpaceOnUse">
<stop stop-color="#EFBE6C"/>
<stop offset="1" stop-color="#F4D29A"/>
</linearGradient>
<linearGradient id="paint12_linear" x1="147.803" y1="334.328" x2="147.803" y2="401.52" gradientUnits="userSpaceOnUse">
<stop stop-color="#F0C275"/>
<stop offset="1" stop-color="#F5D6A3"/>
</linearGradient>
<linearGradient id="paint13_linear" x1="146.942" y1="363.246" x2="129.435" y2="376.349" gradientUnits="userSpaceOnUse">
<stop stop-color="#F5D6A3" stop-opacity="0"/>
<stop offset="1" stop-color="#EDB85E"/>
</linearGradient>
<linearGradient id="paint14_linear" x1="133.529" y1="390.718" x2="132.626" y2="380.541" gradientUnits="userSpaceOnUse">
<stop stop-color="#EDB85E"/>
<stop offset="1" stop-color="#F5D6A3" stop-opacity="0"/>
</linearGradient>
</defs>
</svg>
