<svg width="283" height="106" viewBox="0 0 283 106" fill="none" xmlns="http://www.w3.org/2000/svg">
<g filter="url(#filter0_d)">
<rect x="58.043" y="13" width="45.7453" height="62.837" transform="rotate(44.5 58.043 13)" fill="#FBFDFD"/>
<rect opacity="0.5" x="57.522" y="21.1804" width="35.0211" height="2.17835" rx="1.08917" transform="rotate(44.5 57.522 21.1804)" fill="#002033"/>
<rect opacity="0.5" x="54.9382" y="23.8098" width="23.9618" height="2.17835" rx="1.08917" transform="rotate(44.5 54.9382 23.8098)" fill="#002033"/>
<rect opacity="0.5" x="48.7135" y="30.1441" width="35.0211" height="1.00539" rx="0.502696" transform="rotate(44.5 48.7135 30.1441)" fill="#002033"/>
<rect opacity="0.5" x="36.3813" y="42.6933" width="35.0211" height="1.00539" rx="0.502696" transform="rotate(44.5 36.3813 42.6933)" fill="#002033"/>
<rect opacity="0.5" x="46.9518" y="31.9368" width="35.0211" height="1.00539" rx="0.502696" transform="rotate(44.5 46.9518 31.9368)" fill="#002033"/>
<rect opacity="0.5" x="34.6198" y="44.486" width="35.0211" height="1.00539" rx="0.502696" transform="rotate(44.5 34.6198 44.486)" fill="#002033"/>
<rect opacity="0.5" x="45.1901" y="33.7296" width="35.0211" height="1.00539" rx="0.502696" transform="rotate(44.5 45.1901 33.7296)" fill="#002033"/>
<rect opacity="0.5" x="32.8579" y="46.2788" width="35.0211" height="1.00539" rx="0.502696" transform="rotate(44.5 32.8579 46.2788)" fill="#002033"/>
<rect opacity="0.5" x="43.4282" y="35.5223" width="35.0211" height="1.00539" rx="0.502696" transform="rotate(44.5 43.4282 35.5223)" fill="#002033"/>
<rect opacity="0.5" x="31.0962" y="48.0715" width="35.0211" height="1.00539" rx="0.502696" transform="rotate(44.5 31.0962 48.0715)" fill="#002033"/>
<rect opacity="0.5" x="41.6665" y="37.315" width="26.1402" height="1.00539" rx="0.502696" transform="rotate(44.5 41.6665 37.315)" fill="#002033"/>
<rect opacity="0.5" x="29.3345" y="49.8643" width="15.9187" height="1.00539" rx="0.502696" transform="rotate(44.5 29.3345 49.8643)" fill="#002033"/>
</g>
<g filter="url(#filter1_d)">
<rect x="46.2195" y="13.0629" width="45.7453" height="62.837" transform="rotate(27 46.2195 13.0629)" fill="#FBFDFD"/>
<rect opacity="0.5" x="48.1825" y="21.0213" width="35.0211" height="2.17835" rx="1.08917" transform="rotate(27 48.1825 21.0213)" fill="#002033"/>
<rect opacity="0.5" x="46.5089" y="24.3059" width="23.9618" height="2.17835" rx="1.08917" transform="rotate(27 46.5089 24.3059)" fill="#002033"/>
<rect opacity="0.5" x="42.4771" y="32.2189" width="35.0211" height="1.00539" rx="0.502696" transform="rotate(27 42.4771 32.2189)" fill="#002033"/>
<rect opacity="0.5" x="34.4893" y="47.8956" width="35.0211" height="1.00539" rx="0.502696" transform="rotate(27 34.4893 47.8956)" fill="#002033"/>
<rect opacity="0.5" x="41.3359" y="34.4585" width="35.0211" height="1.00539" rx="0.502696" transform="rotate(27 41.3359 34.4585)" fill="#002033"/>
<rect opacity="0.5" x="33.3483" y="50.1352" width="35.0211" height="1.00539" rx="0.502696" transform="rotate(27 33.3483 50.1352)" fill="#002033"/>
<rect opacity="0.5" x="40.1948" y="36.698" width="35.0211" height="1.00539" rx="0.502696" transform="rotate(27 40.1948 36.698)" fill="#002033"/>
<rect opacity="0.5" x="32.2072" y="52.3747" width="35.0211" height="1.00539" rx="0.502696" transform="rotate(27 32.2072 52.3747)" fill="#002033"/>
<rect opacity="0.5" x="39.0536" y="38.9375" width="35.0211" height="1.00539" rx="0.502696" transform="rotate(27 39.0536 38.9375)" fill="#002033"/>
<rect opacity="0.5" x="31.066" y="54.6142" width="35.0211" height="1.00539" rx="0.502696" transform="rotate(27 31.066 54.6142)" fill="#002033"/>
<rect opacity="0.5" x="37.9125" y="41.177" width="26.1402" height="1.00539" rx="0.502696" transform="rotate(27 37.9125 41.177)" fill="#002033"/>
<rect opacity="0.5" x="29.9249" y="56.8537" width="15.9187" height="1.00539" rx="0.502696" transform="rotate(27 29.9249 56.8537)" fill="#002033"/>
</g>
<g filter="url(#filter2_d)">
<rect x="37.1167" y="15.6824" width="45.7453" height="62.837" transform="rotate(13 37.1167 15.6824)" fill="#FBFDFD"/>
<rect opacity="0.5" x="40.9468" y="22.9297" width="35.0211" height="2.17835" rx="1.08917" transform="rotate(13 40.9468 22.9297)" fill="#002033"/>
<rect opacity="0.5" x="40.1176" y="26.5216" width="23.9618" height="2.17835" rx="1.08917" transform="rotate(13 40.1176 26.5216)" fill="#002033"/>
<rect opacity="0.5" x="38.1198" y="35.1749" width="35.0211" height="1.00539" rx="0.502696" transform="rotate(13 38.1198 35.1749)" fill="#002033"/>
<rect opacity="0.5" x="34.1619" y="52.3183" width="35.0211" height="1.00539" rx="0.502696" transform="rotate(13 34.1619 52.3183)" fill="#002033"/>
<rect opacity="0.5" x="37.5543" y="37.624" width="35.0211" height="1.00539" rx="0.502696" transform="rotate(13 37.5543 37.624)" fill="#002033"/>
<rect opacity="0.5" x="33.5964" y="54.7674" width="35.0211" height="1.00539" rx="0.502696" transform="rotate(13 33.5964 54.7674)" fill="#002033"/>
<rect opacity="0.5" x="36.9889" y="40.073" width="35.0211" height="1.00539" rx="0.502696" transform="rotate(13 36.9889 40.073)" fill="#002033"/>
<rect opacity="0.5" x="33.031" y="57.2165" width="35.0211" height="1.00539" rx="0.502696" transform="rotate(13 33.031 57.2165)" fill="#002033"/>
<rect opacity="0.5" x="36.4235" y="42.5221" width="35.0211" height="1.00539" rx="0.502696" transform="rotate(13 36.4235 42.5221)" fill="#002033"/>
<rect opacity="0.5" x="32.4657" y="59.6655" width="35.0211" height="1.00539" rx="0.502696" transform="rotate(13 32.4657 59.6655)" fill="#002033"/>
<rect opacity="0.5" x="35.8582" y="44.9711" width="26.1402" height="1.00539" rx="0.502696" transform="rotate(13 35.8582 44.9711)" fill="#002033"/>
<rect opacity="0.5" x="31.9001" y="62.1146" width="15.9187" height="1.00539" rx="0.502696" transform="rotate(13 31.9001 62.1146)" fill="#002033"/>
</g>
<g filter="url(#filter3_d)">
<rect x="29.4628" y="20.0224" width="45.7453" height="62.837" fill="#FBFDFD"/>
<rect opacity="0.5" x="34.8248" y="26.2223" width="35.0211" height="2.17835" rx="1.08917" fill="#002033"/>
<rect opacity="0.5" x="34.8248" y="29.9088" width="23.9618" height="2.17835" rx="1.08917" fill="#002033"/>
<rect opacity="0.5" x="34.8248" y="38.7897" width="35.0211" height="1.00539" rx="0.502696" fill="#002033"/>
<rect opacity="0.5" x="34.8248" y="56.384" width="35.0211" height="1.00539" rx="0.502696" fill="#002033"/>
<rect opacity="0.5" x="34.8248" y="41.3032" width="35.0211" height="1.00539" rx="0.502696" fill="#002033"/>
<rect opacity="0.5" x="34.8248" y="58.8976" width="35.0211" height="1.00539" rx="0.502696" fill="#002033"/>
<rect opacity="0.5" x="34.8248" y="43.8167" width="35.0211" height="1.00539" rx="0.502696" fill="#002033"/>
<rect opacity="0.5" x="34.8248" y="61.411" width="35.0211" height="1.00539" rx="0.502696" fill="#002033"/>
<rect opacity="0.5" x="34.8248" y="46.3302" width="35.0211" height="1.00539" rx="0.502696" fill="#002033"/>
<rect opacity="0.5" x="34.8248" y="63.9245" width="35.0211" height="1.00539" rx="0.502696" fill="#002033"/>
<rect opacity="0.5" x="34.8248" y="48.8437" width="26.1402" height="1.00539" rx="0.502696" fill="#002033"/>
<rect opacity="0.5" x="34.8248" y="66.438" width="15.9187" height="1.00539" rx="0.502696" fill="#002033"/>
</g>
<g filter="url(#filter4_d)">
<rect x="147.134" y="13" width="45.7453" height="62.837" transform="rotate(44.5 147.134 13)" fill="#FBFDFD"/>
<rect opacity="0.5" x="146.613" y="21.1804" width="35.0211" height="2.17835" rx="1.08917" transform="rotate(44.5 146.613 21.1804)" fill="#002033"/>
<rect opacity="0.5" x="144.029" y="23.8098" width="23.9618" height="2.17835" rx="1.08917" transform="rotate(44.5 144.029 23.8098)" fill="#002033"/>
<rect opacity="0.5" x="137.804" y="30.1441" width="35.0211" height="1.00539" rx="0.502696" transform="rotate(44.5 137.804 30.1441)" fill="#002033"/>
<rect opacity="0.5" x="125.472" y="42.6933" width="35.0211" height="1.00539" rx="0.502696" transform="rotate(44.5 125.472 42.6933)" fill="#002033"/>
<rect opacity="0.5" x="136.042" y="31.9368" width="35.0211" height="1.00539" rx="0.502696" transform="rotate(44.5 136.042 31.9368)" fill="#002033"/>
<rect opacity="0.5" x="123.71" y="44.486" width="35.0211" height="1.00539" rx="0.502696" transform="rotate(44.5 123.71 44.486)" fill="#002033"/>
<rect opacity="0.5" x="134.281" y="33.7296" width="35.0211" height="1.00539" rx="0.502696" transform="rotate(44.5 134.281 33.7296)" fill="#002033"/>
<rect opacity="0.5" x="121.949" y="46.2788" width="35.0211" height="1.00539" rx="0.502696" transform="rotate(44.5 121.949 46.2788)" fill="#002033"/>
<rect opacity="0.5" x="132.519" y="35.5223" width="35.0211" height="1.00539" rx="0.502696" transform="rotate(44.5 132.519 35.5223)" fill="#002033"/>
<rect opacity="0.5" x="120.187" y="48.0715" width="35.0211" height="1.00539" rx="0.502696" transform="rotate(44.5 120.187 48.0715)" fill="#002033"/>
<rect opacity="0.5" x="130.757" y="37.315" width="26.1402" height="1.00539" rx="0.502696" transform="rotate(44.5 130.757 37.315)" fill="#002033"/>
<rect opacity="0.5" x="118.425" y="49.8643" width="15.9187" height="1.00539" rx="0.502696" transform="rotate(44.5 118.425 49.8643)" fill="#002033"/>
</g>
<g filter="url(#filter5_d)">
<rect x="135.31" y="13.0629" width="45.7453" height="62.837" transform="rotate(27 135.31 13.0629)" fill="#FBFDFD"/>
<rect opacity="0.5" x="137.273" y="21.0213" width="35.0211" height="2.17835" rx="1.08917" transform="rotate(27 137.273 21.0213)" fill="#002033"/>
<rect opacity="0.5" x="135.6" y="24.3059" width="23.9618" height="2.17835" rx="1.08917" transform="rotate(27 135.6 24.3059)" fill="#002033"/>
<rect opacity="0.5" x="131.568" y="32.2189" width="35.0211" height="1.00539" rx="0.502696" transform="rotate(27 131.568 32.2189)" fill="#002033"/>
<rect opacity="0.5" x="123.58" y="47.8956" width="35.0211" height="1.00539" rx="0.502696" transform="rotate(27 123.58 47.8956)" fill="#002033"/>
<rect opacity="0.5" x="130.427" y="34.4585" width="35.0211" height="1.00539" rx="0.502696" transform="rotate(27 130.427 34.4585)" fill="#002033"/>
<rect opacity="0.5" x="122.439" y="50.1352" width="35.0211" height="1.00539" rx="0.502696" transform="rotate(27 122.439 50.1352)" fill="#002033"/>
<rect opacity="0.5" x="129.286" y="36.698" width="35.0211" height="1.00539" rx="0.502696" transform="rotate(27 129.286 36.698)" fill="#002033"/>
<rect opacity="0.5" x="121.298" y="52.3747" width="35.0211" height="1.00539" rx="0.502696" transform="rotate(27 121.298 52.3747)" fill="#002033"/>
<rect opacity="0.5" x="128.144" y="38.9375" width="35.0211" height="1.00539" rx="0.502696" transform="rotate(27 128.144 38.9375)" fill="#002033"/>
<rect opacity="0.5" x="120.157" y="54.6142" width="35.0211" height="1.00539" rx="0.502696" transform="rotate(27 120.157 54.6142)" fill="#002033"/>
<rect opacity="0.5" x="127.003" y="41.177" width="26.1402" height="1.00539" rx="0.502696" transform="rotate(27 127.003 41.177)" fill="#002033"/>
<rect opacity="0.5" x="119.016" y="56.8537" width="15.9187" height="1.00539" rx="0.502696" transform="rotate(27 119.016 56.8537)" fill="#002033"/>
</g>
<g filter="url(#filter6_d)">
<rect x="126.208" y="15.6824" width="45.7453" height="62.837" transform="rotate(13 126.208 15.6824)" fill="#FBFDFD"/>
<rect opacity="0.5" x="130.037" y="22.9297" width="35.0211" height="2.17835" rx="1.08917" transform="rotate(13 130.037 22.9297)" fill="#002033"/>
<rect opacity="0.5" x="129.208" y="26.5216" width="23.9618" height="2.17835" rx="1.08917" transform="rotate(13 129.208 26.5216)" fill="#002033"/>
<rect opacity="0.5" x="127.21" y="35.1749" width="35.0211" height="1.00539" rx="0.502696" transform="rotate(13 127.21 35.1749)" fill="#002033"/>
<rect opacity="0.5" x="123.253" y="52.3183" width="35.0211" height="1.00539" rx="0.502696" transform="rotate(13 123.253 52.3183)" fill="#002033"/>
<rect opacity="0.5" x="126.645" y="37.624" width="35.0211" height="1.00539" rx="0.502696" transform="rotate(13 126.645 37.624)" fill="#002033"/>
<rect opacity="0.5" x="122.687" y="54.7674" width="35.0211" height="1.00539" rx="0.502696" transform="rotate(13 122.687 54.7674)" fill="#002033"/>
<rect opacity="0.5" x="126.08" y="40.073" width="35.0211" height="1.00539" rx="0.502696" transform="rotate(13 126.08 40.073)" fill="#002033"/>
<rect opacity="0.5" x="122.122" y="57.2165" width="35.0211" height="1.00539" rx="0.502696" transform="rotate(13 122.122 57.2165)" fill="#002033"/>
<rect opacity="0.5" x="125.514" y="42.5221" width="35.0211" height="1.00539" rx="0.502696" transform="rotate(13 125.514 42.5221)" fill="#002033"/>
<rect opacity="0.5" x="121.556" y="59.6655" width="35.0211" height="1.00539" rx="0.502696" transform="rotate(13 121.556 59.6655)" fill="#002033"/>
<rect opacity="0.5" x="124.949" y="44.9711" width="26.1402" height="1.00539" rx="0.502696" transform="rotate(13 124.949 44.9711)" fill="#002033"/>
<rect opacity="0.5" x="120.991" y="62.1146" width="15.9187" height="1.00539" rx="0.502696" transform="rotate(13 120.991 62.1146)" fill="#002033"/>
</g>
<g filter="url(#filter7_d)">
<rect x="118.554" y="20.0224" width="45.7453" height="62.837" fill="#FBFDFD"/>
<rect opacity="0.5" x="123.916" y="26.2223" width="35.0211" height="2.17835" rx="1.08917" fill="#002033"/>
<rect opacity="0.5" x="123.916" y="29.9088" width="23.9618" height="2.17835" rx="1.08917" fill="#002033"/>
<rect opacity="0.5" x="123.916" y="38.7897" width="35.0211" height="1.00539" rx="0.502696" fill="#002033"/>
<rect opacity="0.5" x="123.916" y="56.384" width="35.0211" height="1.00539" rx="0.502696" fill="#002033"/>
<rect opacity="0.5" x="123.916" y="41.3032" width="35.0211" height="1.00539" rx="0.502696" fill="#002033"/>
<rect opacity="0.5" x="123.916" y="58.8976" width="35.0211" height="1.00539" rx="0.502696" fill="#002033"/>
<rect opacity="0.5" x="123.916" y="43.8167" width="35.0211" height="1.00539" rx="0.502696" fill="#002033"/>
<rect opacity="0.5" x="123.916" y="61.411" width="35.0211" height="1.00539" rx="0.502696" fill="#002033"/>
<rect opacity="0.5" x="123.916" y="46.3302" width="35.0211" height="1.00539" rx="0.502696" fill="#002033"/>
<rect opacity="0.5" x="123.916" y="63.9245" width="35.0211" height="1.00539" rx="0.502696" fill="#002033"/>
<rect opacity="0.5" x="123.916" y="48.8437" width="26.1402" height="1.00539" rx="0.502696" fill="#002033"/>
<rect opacity="0.5" x="123.916" y="66.438" width="15.9187" height="1.00539" rx="0.502696" fill="#002033"/>
</g>
<g filter="url(#filter8_d)">
<rect x="236.225" y="13" width="45.7453" height="62.837" transform="rotate(44.5 236.225 13)" fill="#FBFDFD"/>
<rect opacity="0.5" x="235.704" y="21.1804" width="35.0211" height="2.17835" rx="1.08917" transform="rotate(44.5 235.704 21.1804)" fill="#002033"/>
<rect opacity="0.5" x="233.12" y="23.8098" width="23.9618" height="2.17835" rx="1.08917" transform="rotate(44.5 233.12 23.8098)" fill="#002033"/>
<rect opacity="0.5" x="226.895" y="30.1441" width="35.0211" height="1.00539" rx="0.502696" transform="rotate(44.5 226.895 30.1441)" fill="#002033"/>
<rect opacity="0.5" x="214.563" y="42.6933" width="35.0211" height="1.00539" rx="0.502696" transform="rotate(44.5 214.563 42.6933)" fill="#002033"/>
<rect opacity="0.5" x="225.134" y="31.9368" width="35.0211" height="1.00539" rx="0.502696" transform="rotate(44.5 225.134 31.9368)" fill="#002033"/>
<rect opacity="0.5" x="212.801" y="44.486" width="35.0211" height="1.00539" rx="0.502696" transform="rotate(44.5 212.801 44.486)" fill="#002033"/>
<rect opacity="0.5" x="223.372" y="33.7296" width="35.0211" height="1.00539" rx="0.502696" transform="rotate(44.5 223.372 33.7296)" fill="#002033"/>
<rect opacity="0.5" x="211.04" y="46.2788" width="35.0211" height="1.00539" rx="0.502696" transform="rotate(44.5 211.04 46.2788)" fill="#002033"/>
<rect opacity="0.5" x="221.61" y="35.5223" width="35.0211" height="1.00539" rx="0.502696" transform="rotate(44.5 221.61 35.5223)" fill="#002033"/>
<rect opacity="0.5" x="209.278" y="48.0715" width="35.0211" height="1.00539" rx="0.502696" transform="rotate(44.5 209.278 48.0715)" fill="#002033"/>
<rect opacity="0.5" x="219.848" y="37.315" width="26.1402" height="1.00539" rx="0.502696" transform="rotate(44.5 219.848 37.315)" fill="#002033"/>
<rect opacity="0.5" x="207.516" y="49.8643" width="15.9187" height="1.00539" rx="0.502696" transform="rotate(44.5 207.516 49.8643)" fill="#002033"/>
</g>
<g filter="url(#filter9_d)">
<rect x="224.401" y="13.0629" width="45.7453" height="62.837" transform="rotate(27 224.401 13.0629)" fill="#FBFDFD"/>
<rect opacity="0.5" x="226.364" y="21.0213" width="35.0211" height="2.17835" rx="1.08917" transform="rotate(27 226.364 21.0213)" fill="#002033"/>
<rect opacity="0.5" x="224.691" y="24.3059" width="23.9618" height="2.17835" rx="1.08917" transform="rotate(27 224.691 24.3059)" fill="#002033"/>
<rect opacity="0.5" x="220.659" y="32.2189" width="35.0211" height="1.00539" rx="0.502696" transform="rotate(27 220.659 32.2189)" fill="#002033"/>
<rect opacity="0.5" x="212.671" y="47.8957" width="35.0211" height="1.00539" rx="0.502696" transform="rotate(27 212.671 47.8957)" fill="#002033"/>
<rect opacity="0.5" x="219.518" y="34.4585" width="35.0211" height="1.00539" rx="0.502696" transform="rotate(27 219.518 34.4585)" fill="#002033"/>
<rect opacity="0.5" x="211.53" y="50.1352" width="35.0211" height="1.00539" rx="0.502696" transform="rotate(27 211.53 50.1352)" fill="#002033"/>
<rect opacity="0.5" x="218.377" y="36.698" width="35.0211" height="1.00539" rx="0.502696" transform="rotate(27 218.377 36.698)" fill="#002033"/>
<rect opacity="0.5" x="210.389" y="52.3747" width="35.0211" height="1.00539" rx="0.502696" transform="rotate(27 210.389 52.3747)" fill="#002033"/>
<rect opacity="0.5" x="217.235" y="38.9375" width="35.0211" height="1.00539" rx="0.502696" transform="rotate(27 217.235 38.9375)" fill="#002033"/>
<rect opacity="0.5" x="209.248" y="54.6142" width="35.0211" height="1.00539" rx="0.502696" transform="rotate(27 209.248 54.6142)" fill="#002033"/>
<rect opacity="0.5" x="216.094" y="41.177" width="26.1402" height="1.00539" rx="0.502696" transform="rotate(27 216.094 41.177)" fill="#002033"/>
<rect opacity="0.5" x="208.107" y="56.8537" width="15.9187" height="1.00539" rx="0.502696" transform="rotate(27 208.107 56.8537)" fill="#002033"/>
</g>
<g filter="url(#filter10_d)">
<rect x="215.298" y="15.6824" width="45.7453" height="62.837" transform="rotate(13 215.298 15.6824)" fill="#FBFDFD"/>
<rect opacity="0.5" x="219.128" y="22.9297" width="35.0211" height="2.17835" rx="1.08917" transform="rotate(13 219.128 22.9297)" fill="#002033"/>
<rect opacity="0.5" x="218.299" y="26.5216" width="23.9618" height="2.17835" rx="1.08917" transform="rotate(13 218.299 26.5216)" fill="#002033"/>
<rect opacity="0.5" x="216.301" y="35.1749" width="35.0211" height="1.00539" rx="0.502696" transform="rotate(13 216.301 35.1749)" fill="#002033"/>
<rect opacity="0.5" x="212.344" y="52.3183" width="35.0211" height="1.00539" rx="0.502696" transform="rotate(13 212.344 52.3183)" fill="#002033"/>
<rect opacity="0.5" x="215.736" y="37.624" width="35.0211" height="1.00539" rx="0.502696" transform="rotate(13 215.736 37.624)" fill="#002033"/>
<rect opacity="0.5" x="211.778" y="54.7674" width="35.0211" height="1.00539" rx="0.502696" transform="rotate(13 211.778 54.7674)" fill="#002033"/>
<rect opacity="0.5" x="215.171" y="40.073" width="35.0211" height="1.00539" rx="0.502696" transform="rotate(13 215.171 40.073)" fill="#002033"/>
<rect opacity="0.5" x="211.213" y="57.2165" width="35.0211" height="1.00539" rx="0.502696" transform="rotate(13 211.213 57.2165)" fill="#002033"/>
<rect opacity="0.5" x="214.605" y="42.5221" width="35.0211" height="1.00539" rx="0.502696" transform="rotate(13 214.605 42.5221)" fill="#002033"/>
<rect opacity="0.5" x="210.647" y="59.6655" width="35.0211" height="1.00539" rx="0.502696" transform="rotate(13 210.647 59.6655)" fill="#002033"/>
<rect opacity="0.5" x="214.04" y="44.9711" width="26.1402" height="1.00539" rx="0.502696" transform="rotate(13 214.04 44.9711)" fill="#002033"/>
<rect opacity="0.5" x="210.082" y="62.1146" width="15.9187" height="1.00539" rx="0.502696" transform="rotate(13 210.082 62.1146)" fill="#002033"/>
</g>
<g filter="url(#filter11_d)">
<rect x="207.645" y="20.0224" width="45.7453" height="62.837" fill="#FBFDFD"/>
<rect opacity="0.5" x="213.007" y="26.2223" width="35.0211" height="2.17835" rx="1.08917" fill="#002033"/>
<rect opacity="0.5" x="213.007" y="29.9088" width="23.9618" height="2.17835" rx="1.08917" fill="#002033"/>
<rect opacity="0.5" x="213.007" y="38.7897" width="35.0211" height="1.00539" rx="0.502696" fill="#002033"/>
<rect opacity="0.5" x="213.007" y="56.384" width="35.0211" height="1.00539" rx="0.502696" fill="#002033"/>
<rect opacity="0.5" x="213.007" y="41.3032" width="35.0211" height="1.00539" rx="0.502696" fill="#002033"/>
<rect opacity="0.5" x="213.007" y="58.8976" width="35.0211" height="1.00539" rx="0.502696" fill="#002033"/>
<rect opacity="0.5" x="213.007" y="43.8167" width="35.0211" height="1.00539" rx="0.502696" fill="#002033"/>
<rect opacity="0.5" x="213.007" y="61.411" width="35.0211" height="1.00539" rx="0.502696" fill="#002033"/>
<rect opacity="0.5" x="213.007" y="46.3302" width="35.0211" height="1.00539" rx="0.502696" fill="#002033"/>
<rect opacity="0.5" x="213.007" y="63.9245" width="35.0211" height="1.00539" rx="0.502696" fill="#002033"/>
<rect opacity="0.5" x="213.007" y="48.8437" width="26.1402" height="1.00539" rx="0.502696" fill="#002033"/>
<rect opacity="0.5" x="213.007" y="66.438" width="15.9187" height="1.00539" rx="0.502696" fill="#002033"/>
</g>
<defs>
<filter id="filter0_d" x="0.328126" y="0.890626" width="104.015" height="104.226" filterUnits="userSpaceOnUse" color-interpolation-filters="sRGB">
<feFlood flood-opacity="0" result="BackgroundImageFix"/>
<feColorMatrix in="SourceAlpha" type="matrix" values="0 0 0 0 0 0 0 0 0 0 0 0 0 0 0 0 0 0 127 0"/>
<feOffset dy="1.5625"/>
<feGaussianBlur stdDeviation="6.83594"/>
<feColorMatrix type="matrix" values="0 0 0 0 0 0 0 0 0 0 0 0 0 0 0 0 0 0 0.15 0"/>
<feBlend mode="normal" in2="BackgroundImageFix" result="effect1_dropShadow"/>
<feBlend mode="normal" in="SourceGraphic" in2="effect1_dropShadow" result="shape"/>
</filter>
<filter id="filter1_d" x="4.02026" y="0.953477" width="96.6305" height="104.1" filterUnits="userSpaceOnUse" color-interpolation-filters="sRGB">
<feFlood flood-opacity="0" result="BackgroundImageFix"/>
<feColorMatrix in="SourceAlpha" type="matrix" values="0 0 0 0 0 0 0 0 0 0 0 0 0 0 0 0 0 0 127 0"/>
<feOffset dy="1.5625"/>
<feGaussianBlur stdDeviation="6.83594"/>
<feColorMatrix type="matrix" values="0 0 0 0 0 0 0 0 0 0 0 0 0 0 0 0 0 0 0.15 0"/>
<feBlend mode="normal" in2="BackgroundImageFix" result="effect1_dropShadow"/>
<feBlend mode="normal" in="SourceGraphic" in2="effect1_dropShadow" result="shape"/>
</filter>
<filter id="filter2_d" x="9.30957" y="3.57308" width="86.0519" height="98.8607" filterUnits="userSpaceOnUse" color-interpolation-filters="sRGB">
<feFlood flood-opacity="0" result="BackgroundImageFix"/>
<feColorMatrix in="SourceAlpha" type="matrix" values="0 0 0 0 0 0 0 0 0 0 0 0 0 0 0 0 0 0 127 0"/>
<feOffset dy="1.5625"/>
<feGaussianBlur stdDeviation="6.83594"/>
<feColorMatrix type="matrix" values="0 0 0 0 0 0 0 0 0 0 0 0 0 0 0 0 0 0 0.15 0"/>
<feBlend mode="normal" in2="BackgroundImageFix" result="effect1_dropShadow"/>
<feBlend mode="normal" in="SourceGraphic" in2="effect1_dropShadow" result="shape"/>
</filter>
<filter id="filter3_d" x="15.7909" y="7.91301" width="73.0891" height="90.1807" filterUnits="userSpaceOnUse" color-interpolation-filters="sRGB">
<feFlood flood-opacity="0" result="BackgroundImageFix"/>
<feColorMatrix in="SourceAlpha" type="matrix" values="0 0 0 0 0 0 0 0 0 0 0 0 0 0 0 0 0 0 127 0"/>
<feOffset dy="1.5625"/>
<feGaussianBlur stdDeviation="6.83594"/>
<feColorMatrix type="matrix" values="0 0 0 0 0 0 0 0 0 0 0 0 0 0 0 0 0 0 0.15 0"/>
<feBlend mode="normal" in2="BackgroundImageFix" result="effect1_dropShadow"/>
<feBlend mode="normal" in="SourceGraphic" in2="effect1_dropShadow" result="shape"/>
</filter>
<filter id="filter4_d" x="89.4189" y="0.890626" width="104.015" height="104.226" filterUnits="userSpaceOnUse" color-interpolation-filters="sRGB">
<feFlood flood-opacity="0" result="BackgroundImageFix"/>
<feColorMatrix in="SourceAlpha" type="matrix" values="0 0 0 0 0 0 0 0 0 0 0 0 0 0 0 0 0 0 127 0"/>
<feOffset dy="1.5625"/>
<feGaussianBlur stdDeviation="6.83594"/>
<feColorMatrix type="matrix" values="0 0 0 0 0 0 0 0 0 0 0 0 0 0 0 0 0 0 0.15 0"/>
<feBlend mode="normal" in2="BackgroundImageFix" result="effect1_dropShadow"/>
<feBlend mode="normal" in="SourceGraphic" in2="effect1_dropShadow" result="shape"/>
</filter>
<filter id="filter5_d" x="93.1111" y="0.953477" width="96.6305" height="104.1" filterUnits="userSpaceOnUse" color-interpolation-filters="sRGB">
<feFlood flood-opacity="0" result="BackgroundImageFix"/>
<feColorMatrix in="SourceAlpha" type="matrix" values="0 0 0 0 0 0 0 0 0 0 0 0 0 0 0 0 0 0 127 0"/>
<feOffset dy="1.5625"/>
<feGaussianBlur stdDeviation="6.83594"/>
<feColorMatrix type="matrix" values="0 0 0 0 0 0 0 0 0 0 0 0 0 0 0 0 0 0 0.15 0"/>
<feBlend mode="normal" in2="BackgroundImageFix" result="effect1_dropShadow"/>
<feBlend mode="normal" in="SourceGraphic" in2="effect1_dropShadow" result="shape"/>
</filter>
<filter id="filter6_d" x="98.4004" y="3.57308" width="86.0519" height="98.8607" filterUnits="userSpaceOnUse" color-interpolation-filters="sRGB">
<feFlood flood-opacity="0" result="BackgroundImageFix"/>
<feColorMatrix in="SourceAlpha" type="matrix" values="0 0 0 0 0 0 0 0 0 0 0 0 0 0 0 0 0 0 127 0"/>
<feOffset dy="1.5625"/>
<feGaussianBlur stdDeviation="6.83594"/>
<feColorMatrix type="matrix" values="0 0 0 0 0 0 0 0 0 0 0 0 0 0 0 0 0 0 0.15 0"/>
<feBlend mode="normal" in2="BackgroundImageFix" result="effect1_dropShadow"/>
<feBlend mode="normal" in="SourceGraphic" in2="effect1_dropShadow" result="shape"/>
</filter>
<filter id="filter7_d" x="104.882" y="7.91301" width="73.0891" height="90.1807" filterUnits="userSpaceOnUse" color-interpolation-filters="sRGB">
<feFlood flood-opacity="0" result="BackgroundImageFix"/>
<feColorMatrix in="SourceAlpha" type="matrix" values="0 0 0 0 0 0 0 0 0 0 0 0 0 0 0 0 0 0 127 0"/>
<feOffset dy="1.5625"/>
<feGaussianBlur stdDeviation="6.83594"/>
<feColorMatrix type="matrix" values="0 0 0 0 0 0 0 0 0 0 0 0 0 0 0 0 0 0 0.15 0"/>
<feBlend mode="normal" in2="BackgroundImageFix" result="effect1_dropShadow"/>
<feBlend mode="normal" in="SourceGraphic" in2="effect1_dropShadow" result="shape"/>
</filter>
<filter id="filter8_d" x="178.51" y="0.890626" width="104.015" height="104.226" filterUnits="userSpaceOnUse" color-interpolation-filters="sRGB">
<feFlood flood-opacity="0" result="BackgroundImageFix"/>
<feColorMatrix in="SourceAlpha" type="matrix" values="0 0 0 0 0 0 0 0 0 0 0 0 0 0 0 0 0 0 127 0"/>
<feOffset dy="1.5625"/>
<feGaussianBlur stdDeviation="6.83594"/>
<feColorMatrix type="matrix" values="0 0 0 0 0 0 0 0 0 0 0 0 0 0 0 0 0 0 0.15 0"/>
<feBlend mode="normal" in2="BackgroundImageFix" result="effect1_dropShadow"/>
<feBlend mode="normal" in="SourceGraphic" in2="effect1_dropShadow" result="shape"/>
</filter>
<filter id="filter9_d" x="182.202" y="0.953477" width="96.6305" height="104.1" filterUnits="userSpaceOnUse" color-interpolation-filters="sRGB">
<feFlood flood-opacity="0" result="BackgroundImageFix"/>
<feColorMatrix in="SourceAlpha" type="matrix" values="0 0 0 0 0 0 0 0 0 0 0 0 0 0 0 0 0 0 127 0"/>
<feOffset dy="1.5625"/>
<feGaussianBlur stdDeviation="6.83594"/>
<feColorMatrix type="matrix" values="0 0 0 0 0 0 0 0 0 0 0 0 0 0 0 0 0 0 0.15 0"/>
<feBlend mode="normal" in2="BackgroundImageFix" result="effect1_dropShadow"/>
<feBlend mode="normal" in="SourceGraphic" in2="effect1_dropShadow" result="shape"/>
</filter>
<filter id="filter10_d" x="187.491" y="3.57308" width="86.0519" height="98.8607" filterUnits="userSpaceOnUse" color-interpolation-filters="sRGB">
<feFlood flood-opacity="0" result="BackgroundImageFix"/>
<feColorMatrix in="SourceAlpha" type="matrix" values="0 0 0 0 0 0 0 0 0 0 0 0 0 0 0 0 0 0 127 0"/>
<feOffset dy="1.5625"/>
<feGaussianBlur stdDeviation="6.83594"/>
<feColorMatrix type="matrix" values="0 0 0 0 0 0 0 0 0 0 0 0 0 0 0 0 0 0 0.15 0"/>
<feBlend mode="normal" in2="BackgroundImageFix" result="effect1_dropShadow"/>
<feBlend mode="normal" in="SourceGraphic" in2="effect1_dropShadow" result="shape"/>
</filter>
<filter id="filter11_d" x="193.973" y="7.91301" width="73.0891" height="90.1807" filterUnits="userSpaceOnUse" color-interpolation-filters="sRGB">
<feFlood flood-opacity="0" result="BackgroundImageFix"/>
<feColorMatrix in="SourceAlpha" type="matrix" values="0 0 0 0 0 0 0 0 0 0 0 0 0 0 0 0 0 0 127 0"/>
<feOffset dy="1.5625"/>
<feGaussianBlur stdDeviation="6.83594"/>
<feColorMatrix type="matrix" values="0 0 0 0 0 0 0 0 0 0 0 0 0 0 0 0 0 0 0.15 0"/>
<feBlend mode="normal" in2="BackgroundImageFix" result="effect1_dropShadow"/>
<feBlend mode="normal" in="SourceGraphic" in2="effect1_dropShadow" result="shape"/>
</filter>
</defs>
</svg>
