<svg width="22" height="22" viewBox="0 0 22 22" fill="none" xmlns="http://www.w3.org/2000/svg">
<path d="M14.36 16.0845C13.9513 16.4932 13.33 16.6008 12.8071 16.3543C9.66467 14.8735 7.12199 12.3297 5.64267 9.18653C5.39761 8.66583 5.5086 8.04687 5.91552 7.63995L7.10128 6.45418L1.70621 1.05905L1.06847 1.69675C0.298772 2.46646 -0.0844227 3.53934 0.0156514 4.62323C0.864714 13.8166 8.18336 21.1353 17.3767 21.9843C18.4606 22.0845 19.5335 21.7012 20.3032 20.9315L20.9409 20.2938L15.5458 14.8987L14.36 16.0845Z" fill="#0085D6"/>
<path d="M7.10128 6.45418L7.89311 5.66235C8.24941 5.30606 8.24941 4.72834 7.89311 4.37204L3.78831 0.267223C3.43201 -0.0890745 2.8543 -0.0890745 2.498 0.267223L1.70621 1.05905L7.10128 6.45418Z" fill="#0085D6"/>
<path d="M16.3377 14.1069L15.5458 14.8987L20.9409 20.2938L21.7328 19.502C22.0891 19.1457 22.0891 18.568 21.7328 18.2117L17.628 14.1069C17.2716 13.7506 16.694 13.7506 16.3377 14.1069Z" fill="#0085D6"/>
</svg>
