<svg width="22" height="31" viewBox="0 0 22 31" fill="none" xmlns="http://www.w3.org/2000/svg">
<path d="M1 13.5031V2C1 1.44772 1.44772 1 2 1H14.2707C14.5401 1 14.7981 1.10872 14.9863 1.30154L20.7157 7.17196C20.898 7.35875 21 7.60941 21 7.87041V13.5031M21 26.6291V28.6667C21 29.2189 20.5523 29.6667 20 29.6667H2C1.44772 29.6667 1 29.2189 1 28.6667V26.6291" stroke="#002033" stroke-width="1.5"/>
<path d="M5 18.1522H5.48777L5.6208 18.682H5.65627C5.79225 18.476 5.96667 18.32 6.17951 18.214C6.39827 18.1022 6.64659 18.0463 6.92447 18.0463C7.5157 18.0463 7.95617 18.2199 8.24588 18.5672C8.53558 18.9146 8.68043 19.4826 8.68043 20.2714C8.68043 20.6423 8.63018 20.9778 8.52967 21.2781C8.43507 21.5724 8.29909 21.8226 8.12172 22.0286C7.94435 22.2346 7.72855 22.3936 7.47432 22.5054C7.226 22.6173 6.94812 22.6732 6.64068 22.6732C6.42192 22.6732 6.2475 22.6585 6.11743 22.6291C5.99327 22.6055 5.85729 22.5614 5.70948 22.4966V24.3333H5V18.1522ZM6.79144 18.6644C6.48991 18.6644 6.25046 18.7438 6.07309 18.9028C5.90163 19.0558 5.78043 19.2913 5.70948 19.6092V21.799C5.8159 21.8814 5.93711 21.9462 6.07309 21.9933C6.20907 22.0345 6.3894 22.0551 6.61407 22.0551C7.02202 22.0551 7.34424 21.905 7.58074 21.6048C7.82314 21.2987 7.94435 20.8513 7.94435 20.2626C7.94435 20.0213 7.92365 19.8035 7.88227 19.6092C7.84088 19.409 7.77289 19.2413 7.67829 19.1059C7.58961 18.9646 7.47136 18.8557 7.32355 18.7792C7.18165 18.7026 7.00428 18.6644 6.79144 18.6644Z" fill="black"/>
<path d="M13.2035 21.0485C13.2035 21.3487 13.2065 21.6224 13.2124 21.8697C13.2183 22.111 13.2449 22.3494 13.2922 22.5849H12.8133L12.6359 21.958H12.6005C12.4822 22.164 12.3108 22.3347 12.0861 22.4701C11.8614 22.6055 11.5983 22.6732 11.2968 22.6732C10.7055 22.6732 10.2651 22.4878 9.97538 22.1169C9.69158 21.7461 9.54969 21.1662 9.54969 20.3774C9.54969 19.6239 9.72706 19.0529 10.0818 18.6644C10.4424 18.27 10.9361 18.0728 11.5628 18.0728C11.7816 18.0728 11.9531 18.0845 12.0772 18.1081C12.2073 18.1316 12.3462 18.1699 12.494 18.2229V16.3862H13.2035V21.0485ZM11.4121 22.0551C11.7136 22.0551 11.9531 21.9786 12.1304 21.8255C12.3078 21.6666 12.429 21.4282 12.494 21.1103V18.9204C12.3876 18.838 12.2664 18.7792 12.1304 18.7438C11.9944 18.7085 11.8141 18.6909 11.5894 18.6909C11.1815 18.6909 10.8622 18.8263 10.6316 19.097C10.4011 19.3619 10.2858 19.7887 10.2858 20.3774C10.2858 20.6188 10.3035 20.8424 10.339 21.0485C10.3804 21.2545 10.4454 21.4311 10.5341 21.5783C10.6228 21.7255 10.7381 21.8432 10.88 21.9315C11.0278 22.0139 11.2051 22.0551 11.4121 22.0551Z" fill="black"/>
<path d="M14.0823 18.1522H14.774V17.905C14.774 17.6342 14.7947 17.3987 14.8361 17.1986C14.8834 16.9984 14.9573 16.8366 15.0578 16.7129C15.1583 16.5834 15.2884 16.4892 15.448 16.4304C15.6076 16.3656 15.8057 16.3333 16.0422 16.3333C16.2314 16.3333 16.3969 16.345 16.5388 16.3686C16.6866 16.3921 16.8404 16.4363 17 16.501L16.8404 17.0926C16.7044 17.0338 16.5743 16.9955 16.4502 16.9778C16.3319 16.9602 16.2196 16.9514 16.1131 16.9514C15.9594 16.9514 15.8382 16.9749 15.7495 17.022C15.6668 17.0691 15.6047 17.1397 15.5633 17.2339C15.5278 17.3222 15.5042 17.4341 15.4924 17.5695C15.4864 17.699 15.4835 17.852 15.4835 18.0286V18.1522H16.663V18.7703H15.4835V22.5672H14.774V18.7703H14.0823V18.1522Z" fill="black"/>
</svg>
